{"title":"Harbinger.Down.2015.WEBRip.480p.x264.AAC-VYTO [P2PDL]","uid":12206167,"size":301198579,"categoryP":"video","categoryS":"movies","magnet":"?xt=urn:btih:89a6fda54e202faf1d0e4ff3717f31635ff9eb82&amp;dn=Harbinger.Down.2015.WEBRip.480p.x264.AAC-VYTO+%5BP2PDL%5D&amp;tr=udp%3A%2F%2Ftracker.openbittorrent.com%3A80&amp;tr=udp%3A%2F%2Fopen.demonii.com%3A1337&amp;tr=udp%3A%2F%2Ftracker.coppersurfer.tk%3A6969&amp;tr=udp%3A%2F%2Fexodus.desync.com%3A6969","seeders":3,"leechers":6,"uploader":"ValidusVyto","files":7,"time":1438964325,"description":"____    ____ ____    ____ .___________.  ______   \n     /   /      /   / |           | /  __    \n    /   /      /   /  `---|  |----`|  |  |  | \n        /     _    _/       |  |     |  |  |  | \n       /        |  |         |  |     |  `--'  | \n    __/         |__|         |__|      ______/  \n                                                  \nPresenting Small Encodes with quality for years!\n                                                                                                   \n                                                                                                   \n\nHarbinger.Down.2015.WEBRip.480p.x264.AAC-VYTO\n\n\nGenre:  Horror, Sci-Fi &lt;a href=&quot;\nhttp://www.imdb.com/title/tt3397918/&quot; rel=&quot;nofollow&quot; target=&quot;_NEW&quot;&gt;\nhttp://www.imdb.com/title/tt3397918/&lt;/a&gt;\n\n\nGeneral\nFormat                         : MPEG-4\nFile size                      : 281 MiB\nDuration                       : 1h 21mn\nOverall bit rate               : 481 Kbps\n\nVideo\nFormat                         : AVC\nBit rate                       : 446 Kbps\nWidth                          : 720 pixels\nHeight                         : 304 pixels\nDisplay aspect ratio           : 2.35:1\nFrame rate mode                : Constant\nFrame rate                     : 23.976 fps\nBit depth                      : 8 bits\nStream size                    : 261 MiB (93%)\nWriting library                : x264 core 148 r2579\n\nAudio\nFormat                         : AAC\nBit rate mode                  : Variable\nBit rate                       : 32.0 Kbps\nChannel(s)                     : 2 channels \nChannel positions              : Front: L R \nSampling rate                  : 48.0 KHz\nStream size                    : 18.7 MiB (7%)\nLanguage                       : English\n\nSubtitle                       : Yes\nSource                     \t   : WEB-DL\t\t\t\n\nScreenshots:\n &lt;a href=&quot;\nhttp://ititli.com/eJ&quot; rel=&quot;nofollow&quot; target=&quot;_NEW&quot;&gt;\nhttp://ititli.com/eJ&lt;/a&gt; &lt;a href=&quot;\nhttp://ititli.com/e5&quot; rel=&quot;nofollow&quot; target=&quot;_NEW&quot;&gt;\nhttp://ititli.com/e5&lt;/a&gt; &lt;a href=&quot;\nhttp://ititli.com/eB&quot; rel=&quot;nofollow&quot; target=&quot;_NEW&quot;&gt;\nhttp://ititli.com/eB&lt;/a&gt; &lt;a href=&quot;\nhttp://ititli.com/eN&quot; rel=&quot;nofollow&quot; target=&quot;_NEW&quot;&gt;\nhttp://ititli.com/eN&lt;/a&gt; &lt;a href=&quot;\nhttp://ititli.com/eP&quot; rel=&quot;nofollow&quot; target=&quot;_NEW&quot;&gt;\nhttp://ititli.com/eP&lt;/a&gt; &lt;a href=&quot;\nhttp://ititli.com/ef&quot; rel=&quot;nofollow&quot; target=&quot;_NEW&quot;&gt;\nhttp://ititli.com/ef&lt;/a&gt; &lt;a href=&quot;\nhttp://ititli.com/eu&quot; rel=&quot;nofollow&quot; target=&quot;_NEW&quot;&gt;\nhttp://ititli.com/eu&lt;/a&gt; &lt;a href=&quot;\nhttp://ititli.com/ev&quot; rel=&quot;nofollow&quot; target=&quot;_NEW&quot;&gt;\nhttp://ititli.com/ev&lt;/a&gt; &lt;a href=&quot;\nhttp://ititli.com/eR&quot; rel=&quot;nofollow&quot; target=&quot;_NEW&quot;&gt;\nhttp://ititli.com/eR&lt;/a&gt; &lt;a href=&quot;\nhttp://ititli.com/ey&quot; rel=&quot;nofollow&quot; target=&quot;_NEW&quot;&gt;\nhttp://ititli.com/ey&lt;/a&gt; &lt;a href=&quot;\nhttp://ititli.com/e3&quot; rel=&quot;nofollow&quot; target=&quot;_NEW&quot;&gt;\nhttp://ititli.com/e3&lt;/a&gt; &lt;a href=&quot;\nhttp://ititli.com/eE&quot; rel=&quot;nofollow&quot; target=&quot;_NEW&quot;&gt;\nhttp://ititli.com/eE&lt;/a&gt;\n\n----------------------------------------------------------------------------------------------------\n\n\nEncoder Notes: Looking For Early Access To Anything You Can Provide DVDScr, R5, DVDR, BluRay, Direct\nAudio, Music Releases and Seedboxes. If You Got anything to offer please contact us.\n\nSupport us by donating BC - 1FgwdzPsd1y25Gea8wP1qni35uGCtmkRCD","torrent":{"xt":"urn:btih:89a6fda54e202faf1d0e4ff3717f31635ff9eb82","amp;dn":"Harbinger.Down.2015.WEBRip.480p.x264.AAC-VYTO+%5BP2PDL%5D","amp;tr":["udp%3A%2F%2Ftracker.openbittorrent.com%3A80","udp%3A%2F%2Fopen.demonii.com%3A1337","udp%3A%2F%2Ftracker.coppersurfer.tk%3A6969","udp%3A%2F%2Fexodus.desync.com%3A6969"],"infoHash":"89a6fda54e202faf1d0e4ff3717f31635ff9eb82","infoHashBuffer":{"type":"Buffer","data":[137,166,253,165,78,32,47,175,29,14,79,243,113,127,49,99,95,249,235,130]},"announce":[],"urlList":[]}}